<?xml version="1.0" encoding="UTF-8" standalone="no"?>
<!-- Created with Inkscape (http://www.inkscape.org/) -->

<svg
   width="4000"
   height="2400"
   viewBox="0 0 1058.3333 634.99998"
   version="1.1"
   id="svg5"
   inkscape:version="1.2.2 (732a01da63, 2022-12-09)"
   sodipodi:docname="flag.svg"
   xml:space="preserve"
   xmlns:inkscape="http://www.inkscape.org/namespaces/inkscape"
   xmlns:sodipodi="http://sodipodi.sourceforge.net/DTD/sodipodi-0.dtd"
   xmlns="http://www.w3.org/2000/svg"
   xmlns:svg="http://www.w3.org/2000/svg"><sodipodi:namedview
     id="namedview7"
     pagecolor="#ffffff"
     bordercolor="#000000"
     borderopacity="0.25"
     inkscape:showpageshadow="2"
     inkscape:pageopacity="0.0"
     inkscape:pagecheckerboard="0"
     inkscape:deskcolor="#d1d1d1"
     inkscape:document-units="mm"
     showgrid="false"
     inkscape:zoom="0.089530721"
     inkscape:cx="1262.1366"
     inkscape:cy="2518.6885"
     inkscape:window-width="1920"
     inkscape:window-height="991"
     inkscape:window-x="-9"
     inkscape:window-y="-9"
     inkscape:window-maximized="1"
     inkscape:current-layer="layer1" /><defs
     id="defs2"><rect
       x="442.39019"
       y="206.16242"
       width="2306.442"
       height="257.70302"
       id="rect366" /><rect
       x="773.10906"
       y="257.70302"
       width="1284.2201"
       height="261.99807"
       id="rect430" /><rect
       x="893.37047"
       y="360.78423"
       width="98.786158"
       height="81.605957"
       id="rect424" /><rect
       x="893.37047"
       y="360.78423"
       width="98.786158"
       height="81.605957"
       id="rect3879" /><rect
       x="773.10906"
       y="257.70302"
       width="1284.2201"
       height="261.99807"
       id="rect3881" /></defs><g
     inkscape:label="Layer 1"
     inkscape:groupmode="layer"
     id="layer1"><path
       style="fill:#ffffff;fill-opacity:1;stroke-width:1.97448"
       d="m 759.18787,1592.2522 c -137.11247,-13.0956 -258.30719,-96.9473 -317.95892,-219.988 -27.20046,-56.1051 -39.31505,-109.168 -39.38593,-172.5137 -0.1051,-93.921 31.53842,-180.9356 92.00824,-253.00777 127.77609,-152.29259 351.51817,-184.97323 517.08294,-75.52713 71.1482,47.03233 127.213,118.26856 154.8059,196.697 15.441,43.8888 22.1755,84.1493 22.1755,132.5717 0,37.6063 -3.3242,64.6801 -12.1132,98.6567 -47.8471,184.9671 -227.26315,311.1962 -416.61453,293.1112 z"
       id="path4027"
       transform="scale(0.26458333)" /><rect
       style="fill:#aa0000;stroke-width:0.264583;fill-opacity:1"
       id="rect167"
       width="1058.3334"
       height="635"
       x="-2.0345053e-05"
       y="-2.6645353e-14" /><rect
       style="fill:#ffff08;fill-opacity:1;stroke-width:0.264583"
       id="rect3189"
       width="1058.3334"
       height="211.66667"
       x="-2.0345053e-05"
       y="211.66666" /><text
       xml:space="preserve"
       transform="matrix(0.06910759,0,0,0.06910759,105.83333,213.02239)"
       id="text3737"
       style="font-size:42.6667px;line-height:1.25;font-family:'Cambria Math';-inkscape-font-specification:'Cambria Math';white-space:pre;shape-inside:url(#rect3879);display:inline;fill:#ffffff" /><text
       xml:space="preserve"
       transform="matrix(0.06910759,0,0,0.06910759,105.83333,213.02239)"
       id="text3739"
       style="font-size:42.6667px;line-height:1.25;font-family:'Cambria Math';-inkscape-font-specification:'Cambria Math';white-space:pre;shape-inside:url(#rect3881);display:inline;fill:#ffffff" /><path
       sodipodi:type="star"
       style="fill:#000000;stroke-width:0.264583"
       id="path1632"
       inkscape:flatsided="false"
       sodipodi:sides="3"
       sodipodi:cx="102.39329"
       sodipodi:cy="273.74533"
       sodipodi:r1="104.81675"
       sodipodi:r2="52.408375"
       sodipodi:arg1="0"
       sodipodi:arg2="1.0471976"
       inkscape:rounded="0"
       inkscape:randomized="0"
       d="m 207.21004,273.74533 -78.61257,45.38699 -78.612557,45.38698 0,-90.77397 0,-90.77397 78.612567,45.38699 z"
       inkscape:transform-center-x="-88.194451"
       inkscape:transform-center-y="-2.4176015e-05"
       transform="matrix(3.3656623,0,0,3.4976988,-168.23234,-639.97872)" /></g></svg>
