<?xml version="1.0" encoding="UTF-8" standalone="no"?>
<!-- Created with Inkscape (http://www.inkscape.org/) -->

<svg
   width="4000"
   height="2400"
   viewBox="0 0 1058.3333 634.99998"
   version="1.1"
   id="svg5"
   inkscape:version="1.2.2 (732a01da63, 2022-12-09)"
   sodipodi:docname="flag_with_seal.svg"
   xml:space="preserve"
   xmlns:inkscape="http://www.inkscape.org/namespaces/inkscape"
   xmlns:sodipodi="http://sodipodi.sourceforge.net/DTD/sodipodi-0.dtd"
   xmlns="http://www.w3.org/2000/svg"
   xmlns:svg="http://www.w3.org/2000/svg"><sodipodi:namedview
     id="namedview7"
     pagecolor="#ffffff"
     bordercolor="#000000"
     borderopacity="0.25"
     inkscape:showpageshadow="2"
     inkscape:pageopacity="0.0"
     inkscape:pagecheckerboard="0"
     inkscape:deskcolor="#d1d1d1"
     inkscape:document-units="mm"
     showgrid="false"
     inkscape:zoom="0.12661556"
     inkscape:cx="908.2612"
     inkscape:cy="2010.0215"
     inkscape:window-width="1920"
     inkscape:window-height="991"
     inkscape:window-x="-9"
     inkscape:window-y="-9"
     inkscape:window-maximized="1"
     inkscape:current-layer="layer1" /><defs
     id="defs2"><rect
       x="442.39019"
       y="206.16242"
       width="2306.442"
       height="257.70302"
       id="rect366" /><rect
       x="773.10906"
       y="257.70302"
       width="1284.2201"
       height="261.99807"
       id="rect430" /><rect
       x="893.37047"
       y="360.78423"
       width="98.786158"
       height="81.605957"
       id="rect424" /><rect
       x="893.37047"
       y="360.78423"
       width="98.786158"
       height="81.605957"
       id="rect3879" /><rect
       x="773.10906"
       y="257.70302"
       width="1284.2201"
       height="261.99807"
       id="rect3881" /></defs><g
     inkscape:label="Layer 1"
     inkscape:groupmode="layer"
     id="layer1"><path
       style="fill:#ffffff;fill-opacity:1;stroke-width:1.97448"
       d="m 759.18787,1592.2522 c -137.11247,-13.0956 -258.30719,-96.9473 -317.95892,-219.988 -27.20046,-56.1051 -39.31505,-109.168 -39.38593,-172.5137 -0.1051,-93.921 31.53842,-180.9356 92.00824,-253.00777 127.77609,-152.29259 351.51817,-184.97323 517.08294,-75.52713 71.1482,47.03233 127.213,118.26856 154.8059,196.697 15.441,43.8888 22.1755,84.1493 22.1755,132.5717 0,37.6063 -3.3242,64.6801 -12.1132,98.6567 -47.8471,184.9671 -227.26315,311.1962 -416.61453,293.1112 z"
       id="path4027"
       transform="scale(0.26458333)" /><rect
       style="fill:#aa0000;stroke-width:0.264583;fill-opacity:1"
       id="rect167"
       width="1058.3334"
       height="635"
       x="-2.0345053e-05"
       y="-2.6645353e-14" /><rect
       style="fill:#ffff08;fill-opacity:1;stroke-width:0.264583"
       id="rect3189"
       width="1058.3334"
       height="211.66667"
       x="-2.0345053e-05"
       y="211.66666" /><path
       sodipodi:type="star"
       style="fill:#000000;stroke-width:0.264583"
       id="path984"
       inkscape:flatsided="false"
       sodipodi:sides="3"
       sodipodi:cx="-647.79425"
       sodipodi:cy="146.27611"
       sodipodi:r1="430.4697"
       sodipodi:r2="215.23486"
       sodipodi:arg1="0"
       sodipodi:arg2="1.0471976"
       inkscape:rounded="0"
       inkscape:randomized="0"
       d="m -217.32455,146.27611 -322.85228,186.39886 -322.85227,186.39883 -10e-6,-372.7977 10e-6,-372.79768 322.85229,186.398834 z"
       inkscape:transform-center-x="-88.194458"
       inkscape:transform-center-y="-2.1962514e-06"
       transform="matrix(0.81951824,0,0,0.85166836,707.2681,192.92127)" /><g
       id="g4441"
       transform="matrix(1.2474578,0,0,1.2474578,-74.854028,-78.567852)"><g
         id="g3729"
         style="fill:#ffffff"
         transform="matrix(0.27556043,0,0,0.27556043,100.08677,207.27583)"><circle
           style="fill:#ffffff;stroke-width:0.265367"
           id="circle3727"
           cx="400"
           cy="400"
           r="400" /></g><g
         inkscape:label="Layer 1"
         id="layer1-1"
         transform="matrix(0.26119403,0,0,0.26119403,105.83333,213.02239)"><g
           id="g236"><circle
             style="fill:#000000;stroke-width:0.265367"
             id="path111"
             cx="400"
             cy="400"
             r="400" /></g><path
           id="path539"
           style="fill:#ffffff;stroke-width:0.248947"
           d="M 775.2485,400 A 375.2485,375.2485 0 0 1 400,775.2485 375.2485,375.2485 0 0 1 24.751497,400 375.2485,375.2485 0 0 1 400,24.751497 375.2485,375.2485 0 0 1 775.2485,400 Z" /><circle
           style="fill:#ffff08;fill-opacity:1;stroke-width:0.192239"
           id="circle349"
           cx="400"
           cy="400"
           r="289.77011" /><circle
           style="fill:#aa0000;fill-opacity:1;stroke-width:0.174145"
           id="circle360"
           cx="400"
           cy="400"
           r="262.49655" /><text
           xml:space="preserve"
           transform="scale(0.26458333)"
           id="text422"
           style="font-size:42.6667px;line-height:1.25;font-family:'Cambria Math';-inkscape-font-specification:'Cambria Math';white-space:pre;shape-inside:url(#rect424);display:inline" /><text
           xml:space="preserve"
           transform="scale(0.26458333)"
           id="text428"
           style="font-size:42.6667px;line-height:1.25;font-family:'Cambria Math';-inkscape-font-specification:'Cambria Math';white-space:pre;shape-inside:url(#rect430);display:inline" /><g
           inkscape:label="Skull_and_Crossbones.svg"
           transform="matrix(0.71903315,0,0,0.71903315,216.48285,223.16338)"
           id="g13123"><path
             fill="#ffffff"
             stroke="#000000"
             stroke-width="12.5"
             d="m 335.4,412.27 63.28,32.9 c 14.98,13.03 11.24,21.9 21.65,29.96 10.26,9.43 16.8,10.96 22.9,2.08 4.85,-10.1 3.88,-20.2 5.4,-31.2 7.08,-6.8 12.9,-10.2 18.74,-17 6.38,-7.1 6.1,-14.1 -3.75,-19.1 -8.2,-3.3 -15.96,-5 -25.8,-2.1 -6.26,2 -12.92,3.1 -21.24,-0.4 l -68.28,-31.7 -194,-67.3 c -26.1,-12.7 -47.78,-22.2 -73.6,-36.5 -14.02,-11.1 -9.5,-23.8 -26.48,-34.1 -7.47,-3.7 -12.87,-5.4 -18.85,4.8 -3.82,9 -3.52,18.6 -4.1,27.9 -6.68,7.2 -14.24,11.4 -19.73,20.3 -7.95,12.8 4.1,17 10.6,18.6 18.44,4.6 25.1,-3.7 42.1,-0.3 33.05,15.4 66.4,31.4 98.3,47.1 z"
             stroke-linejoin="round"
             id="path13099" /><path
             fill="#ffffff"
             stroke="#000000"
             stroke-width="12.5"
             d="m 349.56,354.82 94.5,-44.54 c 17.9,-7.08 20.4,2.9 36.2,0 12.08,-0.14 22.07,-4.86 21.24,-16.23 -6.1,-9.03 -11.8,-14.7 -22.48,-24.57 0.56,-10.54 -1.4,-20.67 -5.4,-30.8 -4.17,-5.97 -11.67,-8.6 -22.9,2.08 -11.38,8.6 -7.78,20.12 -22.07,32.05 -23.3,11.6 -44.54,21.8 -70.35,34.6 l -196.5,67.9 c -22.75,12.1 -43.42,23.3 -69.5,33.3 -21.24,5.3 -20.4,-7.7 -46.2,0.9 -7.37,5.8 -7.23,14.2 -1.26,20.4 6.93,6.8 11.8,11.1 17.9,17.1 1.94,8.6 2.22,16 3.33,26.3 4.16,12.6 13.33,11.9 21.23,5.8 3.47,-4.3 7.77,-8.2 10.4,-12.9 3.6,-6.2 7.64,-13.3 12.5,-19.1 l 62.85,-33.3 z"
             stroke-linejoin="round"
             id="path13101" /><path
             fill="#ffffff"
             stroke="#000000"
             stroke-width="12.5"
             d="m 128.5,221.56 c -19.14,-18.6 -32.5,-50.9 -34.37,-85.75 -2,-38.4 18.22,-76.5 48.54,-98.3 C 176.64,13.6 233.43,7 268.75,8.8 c 23.92,0.02 77.2,12.42 96.02,26.43 33,24 50.68,58.04 51.9,96.85 1.82,38.98 -14.6,68.68 -34.7,87.2"
             id="path13103" /><path
             fill="#ffffff"
             d="m 130.4,215 c 0,0 -23.13,70.03 21.44,81.97 l 16.25,93.66 c 17.1,73.72 154.4,73.77 174.6,0 l 16.2,-93.66 c 45.7,-12.2 22.5,-82 22.5,-82 z"
             id="path13105" /><path
             fill="none"
             stroke="#000000"
             stroke-width="12.5"
             d="m 129.66,112.27 c -7.75,6.78 -6.77,16.97 -5.38,32.2 1.1,11.55 8.48,22.93 8.87,33.5 2.7,22.27 -3.88,44.56 -6.98,62.78 -2.13,20.92 3.88,38.95 11.63,45.92 7.75,6.88 17.76,9.73 28.27,12.94 9.55,2.5 14.5,6.9 21.73,12.3 8.6,9.2 10.66,16.7 10.46,26 m 183.8,-226.1 c 7.75,6.8 6.77,17 5.38,32.2 -1.1,11.6 -8.48,23 -8.87,33.5 -2.7,22.3 3.88,44.6 6.98,62.8 2.13,21 -3.88,39 -11.63,46 -7.75,6.9 -21.94,10.6 -28.27,12.9 -7.37,2.6 -14.92,7.3 -21.72,12.7 -8.2,7.9 -10.66,16.3 -10.47,25.6"
             id="path13107" /><path
             fill="none"
             stroke="#000000"
             stroke-width="12.5"
             d="m 151.82,296.96 c 6.94,16.8 14.3,33.16 15,50.37 -3.2,13.88 -2.23,30.25 1.24,43.3 4.44,17.9 21.78,39.12 39.13,46.2 17.7,6.45 28.8,8.12 48.7,8.12"
             id="path13109" /><path
             fill="none"
             stroke="#000000"
             stroke-width="12.5"
             d="m 358.92,296.96 c -6.94,16.8 -14.3,33.16 -14.98,50.37 3.2,13.87 2.22,30.25 -1.25,43.3 -4.5,17.9 -22,38.5 -39.4,45.58 -17.4,7.1 -28.5,8.8 -48.3,8.8"
             id="path13111" /><path
             stroke="#000000"
             stroke-width="1pt"
             d="m 251.9,245.7 c -9.7,7.38 -11.86,9.86 -17.22,18.02 -1.94,3.15 -5.56,10.5 -6.55,15.44 -1,4.94 -1.73,12.1 -1.72,15.9 0.1,12.85 4.1,20.9 8.6,20.63 4,-0.5 9.1,-4.7 16.8,-14.1 m 7.1,-55.7 c 9.7,7.3 11.9,9.8 17.2,18 2,3.1 5.6,10.5 6.6,15.4 1,4.9 1.8,12.1 1.7,15.9 0,12.8 -4.1,20.9 -8.5,20.6 -4,-0.5 -9.1,-4.7 -16.8,-14.1 m -89.5,-112.3 c 13.5,-2.4 26.5,-3.9 40,-5.4 17.6,-4.5 26.5,15.6 21.7,30.8 -6.1,13.4 -14.7,25.2 -24.5,36.6 -7.6,8.6 -16.7,9.9 -25.4,7 -7,-2 -13.4,-6.3 -20.4,-16.3 -3,-8.6 -5.6,-13.1 -9.5,-23.7 -3.02,-9.9 1.7,-24.6 18.3,-29.2 z m 172.1,0 c -13.4,-2.4 -26.5,-3.9 -39.9,-5.4 -17.6,-4.5 -26.5,15.6 -21.6,30.8 6.1,13.4 14.7,25.2 24.6,36.6 7.7,8.6 16.8,9.9 25.4,7 7,-2 13.5,-6.3 20.4,-16.3 3.1,-8.6 5.7,-13.1 9.6,-23.7 3.1,-9.9 -1.7,-24.6 -18.3,-29.2 z"
             id="path13113" /><path
             fill="none"
             stroke="#000000"
             stroke-width="6.25"
             d="m 169.23,304.53 c 5.7,13.34 7.45,18.4 11.55,31.72 3.5,12.3 4.8,19.8 6.95,37.26 m 153.37,-69.7 c -5.7,13.4 -7.46,18.4 -11.57,31.7 -3.5,12.3 -4.78,19.8 -6.94,37.3"
             id="path13115" /><path
             fill="none"
             stroke="#000000"
             stroke-width="5"
             d="m 193.52,335.73 c 14.7,9.03 40.16,10.42 62.95,10 25.4,-0.12 47.13,-1.95 61.4,-10.6 m -119.2,24.15 c 16.23,10.2 35.33,13.7 57.32,12.88 22.8,-0.56 40.3,-2.48 56,-13.17"
             id="path13117" /><path
             fill="none"
             stroke="#000000"
             stroke-width="6.25"
             d="m 186.9,371.64 c 17.36,20.95 41.6,24.6 69.17,25.32 29.5,1.08 59.16,-10.65 66.8,-25.3"
             id="path13119" /><path
             stroke="#000000"
             stroke-width="5"
             d="m 198.44,340.26 -0.4,41.2 m 13.93,-36.83 -0.2,44.12 m 15.2,-42.25 -0.43,46.2 m 13.96,-45.16 -0.22,46.83 m 15.4,-46.4 v 46.82 m 14.57,-47.1 0.2,46.8 m 12.92,-48.1 0.4,46 m 14.8,-48.5 0.2,44.1 m 13.53,-49.6 0.4,41.6"
             id="path13121" /></g><g
           aria-label="Negara Merdeka Derrenomo"
           id="text364"
           style="font-size:60.6778px;font-family:'Times New Roman';-inkscape-font-specification:'Times New Roman, ';white-space:pre"
           inkscape:transform-center-x="-134.52588"
           inkscape:transform-center-y="203.27983"><path
             d="m 85.174636,236.97081 5.616212,-9.34529 38.478262,-5.53141 -19.85874,-11.93445 q -3.17435,-1.90768 -4.38891,-1.66973 -1.63126,0.29863 -2.85217,2.33021 l -0.71729,1.19356 -0.93961,-0.56468 7.2034,-11.98635 0.93961,0.56467 -0.73255,1.21896 q -1.31248,2.18395 -0.54136,3.89176 0.47688,1.04705 3.37189,2.78686 l 29.02627,17.44383 -0.54941,0.91421 -41.374873,6.03747 21.204673,12.74331 q 3.17435,1.90768 4.37365,1.69512 1.64651,-0.32402 2.85217,-2.33021 l 0.73255,-1.21895 0.93961,0.56467 -7.20341,11.98635 -0.9396,-0.56467 0.71728,-1.19356 q 1.32775,-2.20934 0.55663,-3.91715 -0.47688,-1.04706 -3.37189,-2.78686 L 93.769719,232.90693 q -2.652667,0.44526 -3.684458,0.89675 -1.01653,0.42609 -2.399456,1.63442 -0.671136,0.59909 -1.571561,2.09739 z"
             id="path1185" /><path
             d="m 133.4995,204.23806 q 4.7801,3.69898 9.31013,3.43693 4.53003,-0.26205 6.96232,-3.43727 1.62153,-2.11681 1.65816,-4.55197 0.0311,-2.4767 -1.98053,-5.69714 l 1.02893,-0.36879 q 2.84391,2.96225 3.68197,7.3737 0.81455,4.39343 -1.92403,7.9685 -2.9728,3.88082 -8.10938,4.35003 -5.14208,0.42767 -10.24596,-3.48201 -5.52723,-4.23398 -6.44634,-9.41662 -0.92461,-5.22418 2.35448,-9.50485 2.77461,-3.6221 6.95734,-4.11287 4.15922,-0.50878 8.15764,2.5541 z m -1.36417,-1.04498 7.63919,-9.97255 q -2.15986,-1.46789 -3.29485,-1.74018 -1.76756,-0.42094 -3.42105,0.17852 -1.63548,0.57595 -2.60839,1.84604 -1.49541,1.95217 -1.15572,4.6756 0.33419,2.6819 2.84082,5.01257 z"
             id="path1187" /><path
             d="m 158.2715,184.76742 q -2.58079,1.00447 -5.0743,0.51681 -2.51528,-0.50775 -4.45263,-2.29654 -2.96045,-2.73344 -3.04364,-6.92346 -0.0631,-4.21179 3.15272,-7.69467 2.63294,-2.85161 5.95558,-3.65502 l 3.89917,-4.22299 q 0.86425,-0.93602 1.07025,-1.0281 0.18422,-0.11218 0.37513,-0.0569 0.3165,0.0503 0.81717,0.51255 0.56596,0.52257 0.68315,0.8324 0.0485,0.1658 -0.0469,0.40024 -0.0754,0.21267 -0.93964,1.14869 l -2.39176,2.5904 q 2.69283,0.2281 5.13085,2.47917 2.78631,2.57265 2.79751,6.5349 0.0112,3.96226 -3.30509,7.55398 -1.36672,1.48023 -3.2291,2.62378 -0.0572,1.72155 0.25253,2.6527 0.30802,0.88929 0.74338,1.29126 0.37006,0.34168 1.03993,0.31497 0.68997,-0.0485 1.80708,-0.95264 0.64984,-0.52911 2.96621,-2.90683 4.2492,-4.38372 5.67114,-5.53068 2.15217,-1.76314 4.47661,-1.83485 2.34455,-0.0935 4.12952,1.55463 2.45979,2.27116 2.48435,6.56836 0.0427,6.33023 -5.00209,11.794 -3.87907,4.20123 -8.44603,5.34778 -2.59581,0.62766 -3.77128,-0.45768 -0.52243,-0.48237 -0.82378,-1.20419 -0.46373,-1.11371 -0.83519,-3.59394 -0.0552,-0.33326 -0.30086,-4.391 -1.71995,0.50887 -2.68456,0.50539 -0.96627,-0.0453 -1.64108,-0.6684 -0.76188,-0.70346 -1.22221,-2.25761 -0.44023,-1.57591 -0.2421,-5.54652 z m -8.71466,-15.06306 q -1.48732,1.61083 -1.20794,3.88506 0.27937,2.27423 2.93507,4.72629 3.43934,3.17561 6.69988,3.44398 2.48182,0.19458 4.08973,-1.54686 1.52751,-1.65437 1.27157,-3.86663 -0.25593,-2.21226 -2.91163,-4.66432 -3.46111,-3.19571 -6.80705,-3.50261 -2.46173,-0.21635 -4.06963,1.52509 z m 15.78419,21.99375 q 0.16552,2.04813 0.64094,3.45491 0.47542,1.40678 1.28084,2.15044 1.04486,0.96474 2.99424,0.42575 3.3595,-0.93067 7.15817,-5.04483 3.61779,-3.91824 3.93304,-7.05484 0.35711,-3.13828 -1.21019,-4.58539 -1.13193,-1.04514 -2.63587,-0.37715 -1.52403,0.68977 -4.70632,3.96165 -4.65284,4.77721 -7.45485,7.06946 z"
             id="path1189" /><path
             d="m 190.19867,161.4916 q -0.94252,5.19544 -1.39791,6.28354 -0.693,1.62113 -2.03583,2.83072 -2.0913,1.8838 -4.74506,1.68234 -2.63175,-0.22129 -4.73367,-2.55474 -1.32858,-1.47491 -1.63981,-3.14846 -0.44584,-2.30994 0.58777,-5.63353 1.05562,-3.34343 4.54551,-9.91636 l -0.71386,-0.79249 q -2.71663,-3.01587 -4.69654,-3.26607 -1.95789,-0.27003 -3.78502,1.37582 -1.38686,1.24925 -1.52716,2.73141 -0.16232,1.50198 0.71018,2.47058 l 1.19413,1.23713 q 0.91216,1.01263 0.87957,2.03888 -0.0106,1.00642 -0.8471,1.75994 -0.81451,0.73369 -1.8584,0.63724 -1.02188,-0.11628 -1.91421,-1.10689 -1.70533,-1.89317 -1.19585,-5.22315 0.50948,-3.32998 4.00965,-6.48286 2.68567,-2.41919 5.21574,-3.06333 1.91352,-0.48752 3.83865,0.41016 1.24891,0.58966 3.88623,3.51747 l 6.16696,6.84625 q 2.59766,2.88379 3.30261,3.44505 0.68512,0.53925 1.12557,0.54126 0.46246,-0.0178 0.79266,-0.31526 0.35222,-0.31727 0.47758,-0.70932 0.2045,-0.70259 0.33555,-3.21318 l 1.11045,1.23277 q 0.50889,5.52294 -1.7365,7.54555 -1.07867,0.97164 -2.39127,0.79823 -1.3126,-0.17341 -2.96062,-1.9587 z m -1.28892,-1.43089 -6.92048,-7.68276 q -2.13429,4.31507 -2.60716,5.7379 -0.86658,2.53513 -0.66323,4.26599 0.20335,1.73085 1.33363,2.98563 1.42772,1.58499 3.32612,1.78898 1.87857,0.18197 3.11134,-0.92848 1.67303,-1.50704 2.41978,-6.16726 z"
             id="path1191" /><path
             d="m 190.79008,129.89929 3.73068,4.83039 q -1.0341,-6.91305 1.80317,-9.10438 1.28967,-0.99605 2.74956,-0.85076 1.44178,0.12183 2.23862,1.15357 0.7063,0.91449 0.58561,2.01846 -0.12069,1.10397 -0.96484,1.75594 -0.82069,0.63385 -2.46817,0.63345 -1.64214,-0.042 -2.13456,0.33834 -0.42207,0.32599 -0.55229,1.17527 -0.31267,1.77634 0.26415,4.84979 l 7.95033,10.29389 q 1.37637,1.78209 2.52818,2.35249 0.79381,0.39768 1.89359,0.22212 1.09978,-0.17556 2.55359,-1.29838 l 0.65196,0.84414 -10.99735,8.49364 -0.65196,-0.84415 q 1.64139,-1.26771 2.04022,-2.39932 0.29645,-0.82793 -0.10292,-1.82972 -0.19063,-0.48918 -1.63943,-2.36506 l -6.42909,-8.32423 q -2.89761,-3.75176 -3.60505,-4.32844 -0.70211,-0.61825 -1.37772,-0.62054 -0.65217,-0.0204 -1.26183,0.45045 -0.7269,0.56141 -1.36975,1.61944 l -0.88644,-0.66305 4.4669,-7.64273 z"
             id="path1193" /><path
             d="m 228.28681,132.7985 q -1.71321,4.99458 -2.32707,6.00181 -0.92894,1.49846 -2.43843,2.49233 -2.35084,1.54783 -4.94411,0.94952 -2.56853,-0.61459 -4.29558,-3.23763 -1.09163,-1.65796 -1.14761,-3.35929 -0.0933,-2.35072 1.42838,-5.48105 1.54648,-3.14662 5.98526,-9.11988 l -0.58654,-0.89085 q -2.23214,-3.39015 -4.15189,-3.93529 -1.895,-0.56143 -3.94889,0.79088 -1.55898,1.02646 -1.92061,2.47065 -0.38637,1.46049 0.33052,2.5493 l 0.99448,1.40266 q 0.74948,1.1383 0.5629,2.14797 -0.16182,0.99338 -1.10216,1.61251 -0.91559,0.60284 -1.9331,0.35049 -0.99277,-0.26865 -1.72595,-1.38221 -1.40119,-2.12812 -0.39667,-5.34359 1.00453,-3.21547 4.93909,-5.80605 3.01897,-1.98774 5.61714,-2.24402 1.96508,-0.19417 3.73329,0.98284 1.14602,0.77079 3.31298,4.06196 l 5.06711,7.69591 q 2.13438,3.24168 2.7469,3.90258 0.59622,0.63616 1.03135,0.7044 0.45988,0.0519 0.83107,-0.19246 0.39593,-0.26068 0.57882,-0.62942 0.30786,-0.66384 0.81502,-3.12616 l 0.9124,1.38576 q -0.32757,5.53666 -2.85163,7.19854 -1.21253,0.79835 -2.48412,0.4295 -1.27158,-0.36886 -2.63235,-2.38171 z m -1.05904,-1.60847 -5.68625,-8.63624 q -2.75901,3.94498 -3.4405,5.28051 -1.23802,2.37595 -1.29731,4.11771 -0.0593,1.74175 0.86941,3.15225 1.17309,1.78169 3.01922,2.26888 1.82983,0.46245 3.21559,-0.44995 1.88067,-1.23827 3.31984,-5.73316 z"
             id="path1195" /><path
             d="M 274.19066,112.68653 246.59255,87.743165 257.17814,112.4106 q 1.46048,3.40334 2.5578,3.9319 1.49812,0.71122 3.67625,-0.22349 l 1.30689,-0.56082 0.4323,1.00739 -12.85102,5.51478 -0.4323,-1.00739 1.30688,-0.56082 q 2.3415,-1.00481 2.7141,-2.84122 0.22511,-1.12831 -1.10686,-4.23215 l -10.3519,-24.1229 q -1.05155,-2.450407 -2.06344,-3.305799 -0.72001,-0.626002 -1.97662,-0.699323 -1.24106,-0.112231 -3.50088,0.85753 l -0.43231,-1.00739 10.45507,-4.486605 25.79215,23.139117 0.78116,-34.542573 10.45506,-4.486606 0.43231,1.00739 -1.27966,0.549142 q -2.36873,1.016496 -2.74133,2.852906 -0.2251,1.128301 1.10686,4.23215 l 10.35191,24.122896 q 1.46048,3.403345 2.58503,3.920225 1.49811,0.71122 3.67625,-0.22349 l 1.27966,-0.54914 0.4323,1.00739 -15.6826,6.72991 -0.43231,-1.00739 1.30689,-0.56083 q 2.36872,-1.0165 2.7141,-2.84122 0.2251,-1.1283 -1.10686,-4.232153 l -10.58558,-24.66743 -0.9083,37.176383 z"
             id="path1197" /><path
             d="m 302.88007,83.959972 q 1.62531,5.821523 5.41542,8.316503 3.79011,2.49498 7.63722,1.400551 2.56475,-0.729619 4.04832,-2.661033 1.50396,-1.968018 1.81351,-5.752484 l 1.04555,0.31863 q 0.5122,4.074352 -1.44993,8.113324 -1.97024,4.010474 -6.30181,5.24272 -4.70202,1.337637 -9.10237,-1.353387 -4.37995,-2.727626 -6.13914,-8.911505 -1.90512,-6.696827 0.45253,-11.402778 2.37805,-4.742555 7.56453,-6.218007 4.38856,-1.24846 8.03668,0.855667 3.64001,2.07563 5.01818,6.920144 z m -0.4702,-1.652834 12.08279,-3.437317 q -0.85589,-2.467214 -1.6037,-3.363401 -1.16641,-1.393168 -2.85069,-1.899732 -1.65578,-0.514671 -3.19462,-0.0769 -2.36526,0.672871 -3.71913,3.060239 -1.33347,2.350764 -0.71465,5.717111 z"
             id="path1199" /><path
             d="m 331.25967,65.402984 1.22704,5.978718 q 2.1106,-6.663713 5.62237,-7.384447 1.59626,-0.327606 2.8436,0.44474 1.24139,0.743322 1.50348,2.02033 0.2323,1.131893 -0.36147,2.07038 -0.59377,0.938486 -1.6386,1.15292 -1.0158,0.208476 -2.49533,-0.516217 -1.45646,-0.759673 -2.06594,-0.634587 -0.52241,0.107216 -1.01276,0.81276 -1.06182,1.457981 -1.89501,4.472044 l 2.61489,12.741054 q 0.4527,2.20574 1.23643,3.224461 0.53813,0.706184 1.6031,1.032032 1.06497,0.325849 2.86439,-0.04345 l 0.21444,1.044824 -13.61175,2.793588 -0.21443,-1.044824 q 2.0316,-0.416954 2.88734,-1.257978 0.63027,-0.613278 0.71202,-1.688644 0.0439,-0.523172 -0.43266,-2.845004 l -2.11455,-10.30313 q -0.95304,-4.643664 -1.33489,-5.472656 -0.35879,-0.863971 -0.96459,-1.163075 -0.57678,-0.30506 -1.33138,-0.150192 -0.89971,0.184651 -1.94225,0.852297 l -0.50467,-0.98526 7.37222,-4.900509 z"
             id="path1201" /><path
             d="m 367.55196,84.888334 q -1.71767,2.300299 -3.48785,3.44289 -1.7738,1.113183 -3.94993,1.380239 -4.41109,0.541329 -8.1558,-2.730381 -3.74833,-3.301117 -4.45927,-9.094339 -0.71095,-5.793223 2.3473,-11.034098 3.05464,-5.270283 8.78905,-5.97401 3.55828,-0.436672 6.15933,1.542584 l -0.6099,-4.96982 q -0.56659,-4.616934 -0.93177,-5.646723 -0.33577,-1.033398 -0.8532,-1.35795 -0.51743,-0.324552 -1.2232,-0.237939 -0.76459,0.09383 -1.97136,0.719527 l -0.5086,-0.982338 7.62398,-4.278827 1.32332,-0.162399 3.82178,31.142245 q 0.58103,4.734562 0.9168,5.76796 0.36157,1.000382 0.88261,1.354341 0.55044,0.350351 1.1974,0.270956 0.794,-0.09744 2.05597,-0.759761 l 0.44979,0.989555 -7.59096,4.304626 -1.35273,0.166008 z m -0.25262,-2.058505 -1.70339,-13.880208 q -0.42184,-1.978038 -1.50615,-3.516576 -1.08432,-1.538538 -2.65573,-2.181498 -1.54561,-0.675975 -2.92775,-0.506358 -2.58783,0.317579 -4.33183,2.889761 -2.30073,3.386757 -1.57896,9.268201 0.72899,5.940258 3.70658,8.798658 2.97398,2.828993 6.14996,2.439236 2.67606,-0.328406 4.84727,-3.311216 z"
             id="path1203" /><path
             d="m 383.08847,69.753964 q 0.15658,6.042122 3.22384,9.386045 3.06725,3.343923 7.06511,3.220703 2.66524,-0.08215 4.57502,-1.593462 1.93849,-1.541843 3.16158,-5.136568 l 0.93628,0.56398 q -0.49684,4.076254 -3.38469,7.514797 -2.88877,3.408929 -7.39006,3.547666 -4.88627,0.150602 -8.49753,-3.532257 -3.58255,-3.713386 -3.78062,-10.139573 -0.21449,-6.959236 3.21959,-10.948169 3.46279,-4.019459 8.85249,-4.185578 4.56052,-0.140562 7.58539,2.789681 3.02395,2.900629 3.17911,7.93497 z m -0.0529,-1.717598 12.55623,-0.387003 q -0.22839,-2.601448 -0.73506,-3.652939 -0.79146,-1.635553 -2.30136,-2.537557 -1.48028,-0.902916 -3.07942,-0.853628 -2.45795,0.07576 -4.35313,2.060894 -1.86648,1.954609 -2.08726,5.370233 z"
             id="path1205" /><path
             d="m 416.56323,44.504586 -1.64152,26.940992 7.27251,-5.849634 q 2.31092,-1.877623 2.69823,-2.388315 0.25821,-0.34046 0.27983,-0.695336 0.036,-0.59146 -0.44147,-1.036114 -0.44614,-0.472425 -1.56631,-0.600043 l 0.0577,-0.946335 11.77005,0.717151 -0.0577,0.946335 q -2.42859,-0.08861 -4.09655,0.492467 -1.63838,0.582876 -3.66694,2.21056 l -7.34066,5.993895 6.41449,9.206621 q 2.67652,3.814062 3.62254,4.851235 1.33482,1.476421 2.37422,1.955311 0.7213,0.340777 2.55483,0.452494 l -0.0649,1.064627 -13.15998,-0.801839 0.0649,-1.064628 q 1.12557,0.0389 1.52804,-0.233406 0.43384,-0.300077 0.46808,-0.861964 0.0414,-0.680178 -1.04958,-2.260476 l -7.66313,-11.123033 -0.54778,8.990188 q -0.16036,2.631996 0.14406,3.481663 0.33399,0.851468 0.99255,1.247787 0.65856,0.396319 2.93388,0.564638 l -0.0649,1.064627 -13.78102,-0.839679 0.0649,-1.064628 q 2.07011,0.126133 3.1358,-0.313542 0.64085,-0.287464 1.0076,-0.947821 0.50306,-0.948881 0.64901,-3.344293 l 1.50277,-24.663872 q 0.2865,-4.702105 0.14256,-5.749773 -0.14215,-1.07724 -0.59189,-1.490519 -0.44794,-0.442852 -1.21684,-0.489701 -0.62103,-0.03784 -1.89373,0.389222 l -0.43967,-1.065687 8.24566,-2.822062 z"
             id="path1207" /><path
             d="m 452.0556,86.641813 q -4.62037,2.555994 -5.7512,2.891463 -1.694,0.488562 -3.48024,0.213493 -2.78186,-0.428387 -4.30427,-2.611339 -1.49314,-2.178442 -1.01515,-5.282405 0.30213,-1.961938 1.40156,-3.261508 1.50723,-1.806339 4.73534,-3.107855 3.25739,-1.297008 10.5559,-2.751113 l 0.16234,-1.054176 q 0.61777,-4.011725 -0.44069,-5.703551 -1.02917,-1.687318 -3.45964,-2.061593 -1.8448,-0.284088 -3.08158,0.544677 -1.26606,0.824256 -1.46447,2.112693 l -0.20297,1.707413 q -0.20743,1.347003 -1.02295,1.970845 -0.78624,0.628352 -1.89898,0.456997 -1.08346,-0.166845 -1.669,-1.036418 -0.55626,-0.865064 -0.35334,-2.182784 0.38781,-2.518309 3.28935,-4.229839 2.90155,-1.71153 7.55749,-0.994546 3.57249,0.550139 5.67165,2.102457 1.58789,1.173813 2.11019,3.23273 0.33319,1.340323 -0.26656,5.234917 l -1.4024,9.106907 q -0.59072,3.836029 -0.57959,4.737056 0.0156,0.871744 0.29266,1.214173 0.3063,0.346939 0.74554,0.414579 0.46852,0.07215 0.85148,-0.07872 0.67355,-0.285978 2.70107,-1.772378 l -0.25252,1.639829 q -3.95606,3.887354 -6.94289,3.427402 -1.43485,-0.220958 -2.13073,-1.347339 -0.69588,-1.126381 -0.3554,-3.532069 z m 0.29311,-1.903373 1.57376,-10.219649 q -4.69224,1.07605 -6.09341,1.609706 -2.51174,0.932199 -3.7238,2.18445 -1.21206,1.25225 -1.46909,2.921362 -0.32468,2.108351 0.71803,3.707821 1.04722,1.570186 2.68705,1.822709 2.22548,0.34271 6.30746,-2.026399 z"
             id="path1209" /><path
             d="m 476.96535,95.167772 0.33954,-1.042322 1.43671,0.46801 q 2.42269,0.789194 3.94156,-0.429843 0.92259,-0.727752 1.97791,-3.9674 l 8.03876,-24.67767 q 1.16544,-3.577699 0.67031,-4.736113 -0.69489,-1.597408 -2.86405,-2.304012 l -1.43671,-0.46801 0.33953,-1.042321 15.55032,5.065521 q 8.56394,2.789708 12.38174,6.183411 3.84598,3.40288 5.07294,8.819348 1.25513,5.425644 -0.68115,11.369695 -2.597,7.972352 -9.18595,11.746424 -7.38243,4.20113 -18.50992,0.57634 z m 11.80144,0.790627 q 3.32075,1.954221 5.74344,2.743415 6.53564,2.128986 12.34158,-1.058832 5.80594,-3.187819 8.36623,-11.047488 2.57864,-7.916011 -0.24488,-13.88372 -2.82352,-5.967709 -9.58453,-8.17011 -2.53537,-0.8259 -6.04114,-1.064262 z"
             id="path1211" /><path
             d="m 530.39267,96.160369 q -2.53143,5.488501 -1.25909,9.844071 1.27235,4.35557 4.91257,6.01294 2.42681,1.10491 4.80804,0.59392 2.42046,-0.52569 5.10709,-3.20898 l 0.59036,0.91987 q -2.24818,3.43634 -6.35888,5.24338 -4.09842,1.78007 -8.19704,-0.086 -4.44915,-2.02568 -6.05954,-6.92581 -1.57115,-4.91481 1.09292,-10.766126 2.88505,-6.336675 7.72906,-8.395818 4.88325,-2.07383 9.7908,0.160549 4.15255,1.890628 5.56981,5.856419 1.42953,3.938826 -0.65752,8.522806 z m 0.71205,-1.563945 11.43298,5.205366 q 0.94554,-2.434267 0.95607,-3.60142 0.0134,-1.816937 -0.94198,-3.293644 -0.92841,-1.46443 -2.3845,-2.127377 -2.23806,-1.018975 -4.81571,-0.07655 -2.53841,0.92774 -4.24686,3.893622 z"
             id="path1213" /><path
             d="m 564.01932,100.38037 -2.93239,5.35274 q 5.92057,-3.71572 9.06465,-1.99329 1.42913,0.78292 1.88057,2.17884 0.46568,1.36993 -0.16066,2.51323 -0.55516,1.01338 -1.61509,1.34485 -1.05993,0.33146 -1.99536,-0.181 -0.90945,-0.49822 -1.56876,-2.00802 -0.6191,-1.52154 -1.16476,-1.82048 -0.46772,-0.25623 -1.29808,-0.0355 -1.75292,0.42478 -4.33824,2.18401 l -6.24914,11.40704 q -1.08185,1.97479 -1.14332,3.25864 -0.0466,0.88662 0.5547,1.82409 0.60125,0.93747 2.21227,1.82003 l -0.51246,0.93543 -12.18656,-6.67618 0.51246,-0.93543 q 1.81889,0.99645 3.01552,0.90878 0.87736,-0.0599 1.63542,-0.82696 0.37192,-0.37056 1.51071,-2.44929 l 5.0534,-9.22437 q 2.27759,-4.15746 2.52275,-5.03663 0.28538,-0.89092 0.0169,-1.51092 -0.24244,-0.60578 -0.91803,-0.97588 -0.80551,-0.441286 -2.03241,-0.606686 l 0.25261,-1.077778 8.79192,1.032852 z"
             id="path1215" /><path
             d="m 582.96309,111.53636 -3.26763,5.15493 q 6.14538,-3.33077 9.17327,-1.41143 1.37632,0.87242 1.73786,2.29428 0.37741,1.39683 -0.32053,2.49788 -0.61863,0.97593 -1.69753,1.23916 -1.07891,0.26323 -1.97977,-0.30782 -0.87584,-0.55518 -1.43757,-2.10393 -0.52085,-1.55791 -1.04635,-1.89102 -0.45043,-0.28552 -1.29318,-0.11815 -1.77643,0.31218 -4.46863,1.90304 l -6.96354,10.9855 q -1.20553,1.90182 -1.34871,3.17913 -0.10297,0.88186 0.4373,1.85575 0.54027,0.97388 2.09175,1.95734 l -0.57104,0.90086 -11.73622,-7.4394 0.57104,-0.90086 q 1.75168,1.11036 2.95146,1.09915 0.8794,-0.004 1.68481,-0.72104 0.39478,-0.3461 1.66376,-2.34801 l 5.63111,-8.8835 q 2.53796,-4.00382 2.83867,-4.86558 0.34158,-0.87091 0.11322,-1.50677 -0.20333,-0.61999 -0.85395,-1.03241 -0.77575,-0.49173 -1.98961,-0.735 l 0.3208,-1.05949 8.7082,1.59117 z"
             id="path1217" /><path
             d="m 592.12947,130.87546 q -3.63364,4.82996 -3.31001,9.35601 0.32362,4.52605 3.53162,6.91494 2.13867,1.59259 4.57411,1.5961 2.47689,-0.003 5.66968,-2.05781 l 0.38274,1.02381 q -2.9233,2.88393 -7.32295,3.7819 -4.38195,0.87422 -7.99392,-1.81549 -3.92089,-2.91975 -4.45991,-8.04948 -0.49755,-5.13579 3.34236,-10.29236 4.15843,-5.5843 9.3281,-6.57379 5.21112,-0.99557 9.53598,2.22501 3.6595,2.7251 4.2071,6.90077 0.56529,4.15191 -2.44294,8.19162 z m 1.02633,-1.37825 10.07551,7.50287 q 1.43838,-2.17961 1.69521,-3.31821 0.39687,-1.77311 -0.22502,-3.4183 -0.59813,-1.62749 -1.88134,-2.58305 -1.97232,-1.46872 -4.69088,-1.09203 -2.67711,0.37063 -4.97348,2.90872 z"
             id="path1219" /><path
             d="m 620.63685,146.66828 q 7.38965,-1.08808 10.60755,1.80269 1.65303,1.48498 2.09082,3.3917 0.45759,1.88468 -0.5399,4.41374 -0.70309,1.75802 -3.15826,4.49103 l -7.7417,8.61779 q -1.72258,1.91751 -2.0278,2.87796 -0.25255,0.76881 -7.8e-4,1.55257 0.27381,0.80356 1.72848,2.11034 l -0.71279,0.79345 -9.9843,-8.96928 0.71279,-0.79345 0.41877,0.37619 q 1.41059,1.26719 2.33779,1.34341 0.96905,0.074 1.94184,-0.56555 0.38516,-0.25141 1.94934,-1.9926 l 7.4249,-8.26514 q 2.47497,-2.75505 2.85642,-4.6427 0.42329,-1.8899 -1.27382,-3.41448 -2.6228,-2.35617 -7.79754,-1.82729 l -9.56327,10.64551 q -1.84138,2.04976 -2.03453,2.75244 -0.26562,0.91637 -0.0139,1.70013 0.29361,0.78152 1.94664,2.2665 l -0.71279,0.79345 -9.98429,-8.96928 0.71279,-0.79345 0.4408,0.39599 q 1.54283,1.38598 2.76479,1.08976 1.2638,-0.29846 3.24378,-2.5025 l 6.73191,-7.49373 q 3.26695,-3.63666 3.80342,-4.58851 0.55851,-0.93206 0.46326,-1.53538 -0.0732,-0.58352 -0.64626,-1.09831 -0.61713,-0.55439 -1.7737,-0.99598 l 0.38218,-1.09045 8.30072,2.99621 0.94774,0.85139 z"
             id="path1221" /><path
             d="m 651.94754,169.2338 q 4.16184,4.54495 3.23055,10.45954 -0.8089,5.03922 -4.63277,8.54078 -2.68764,2.46109 -6.62135,3.69301 -3.93372,1.23193 -7.41309,0.24002 -3.45935,-0.97006 -6.00048,-3.7451 -4.14184,-4.5231 -2.97755,-10.49035 0.97634,-5.03185 4.75651,-8.49338 2.75319,-2.52112 6.70323,-3.64748 3.9919,-1.12451 7.32199,-0.0763 3.35195,1.02824 5.63296,3.51922 z m -2.04057,0.62321 q -1.06047,-1.15809 -2.84017,-1.69775 -1.73784,-0.53781 -4.12434,0.32182 -2.3865,0.85962 -5.09599,3.34072 -4.37014,4.00178 -5.9578,8.62927 -1.56764,4.64934 1.03351,7.48993 1.94086,2.11952 4.94948,1.89541 3.00861,-0.22412 7.2695,-4.12584 5.33158,-4.88217 6.28975,-9.97773 0.67703,-3.47226 -1.52394,-5.87583 z"
             id="path1223" /><path
             d="m 665.85767,194.29423 q 4.13086,0.70152 4.80193,0.87923 1.68976,0.43571 3.08879,1.33205 1.39903,0.89634 2.27351,2.12859 1.47462,2.07793 1.32962,4.4333 -0.145,2.35538 -2.0803,4.49172 4.66555,0.43107 6.77696,1.51213 2.13557,1.06392 3.42157,2.87606 1.25171,1.76382 1.29378,3.76847 0.0834,2.01165 -1.40455,4.26647 -1.02416,1.52607 -4.02024,3.65227 l -9.51979,6.75581 q -2.07792,1.47462 -2.6282,2.33742 -0.36009,0.61885 -0.28372,1.54557 0.10053,0.90957 1.14648,2.38345 l -0.86982,0.61728 -7.75033,-10.92118 0.86983,-0.61728 0.32579,0.45907 q 1.01165,1.42555 2.13322,1.82852 0.78097,0.28138 1.7981,-0.0771 0.47934,-0.19485 2.41229,-1.56658 l 9.51979,-6.75582 q 2.70614,-1.92043 3.35462,-3.36155 0.87764,-2.03971 -0.59698,-4.11763 -0.90877,-1.28059 -2.48707,-2.12237 -1.53698,-0.83476 -4.57979,-1.4365 l -0.30008,0.14029 -1.00467,0.78563 -10.55875,7.49313 q -2.27122,1.61179 -2.65548,2.24778 -0.36711,0.66016 -0.25644,1.6352 0.13482,0.9579 1.3351,2.64923 l -0.86983,0.61728 -7.93894,-11.18696 0.86983,-0.61728 q 1.30315,1.8363 2.21817,2.20419 0.93217,0.39206 1.99061,0.0406 0.49649,-0.17069 2.47777,-1.57672 l 9.51979,-6.75581 q 2.70613,-1.92044 3.32422,-3.55797 0.79191,-2.16052 -0.56268,-4.06931 -0.92593,-1.30474 -2.5354,-2.08807 -2.4863,-1.25098 -4.58681,-1.39519 l -11.8635,8.41904 q -2.17457,1.54321 -2.62118,2.29611 -0.42946,0.77707 -0.35621,1.59701 0.11457,0.82696 1.40057,2.6391 l -0.86983,0.61728 -7.76747,-10.94534 0.86983,-0.61728 q 1.08024,1.5222 1.82302,1.90334 0.76693,0.36399 1.69053,0.18084 0.94777,-0.2003 3.00153,-1.65777 l 8.45667,-6.00136 q 3.64845,-2.58916 4.55725,-3.56107 0.67732,-0.73498 0.71006,-1.30316 0.0569,-0.58534 -0.38891,-1.21355 -0.48011,-0.67653 -1.51126,-1.36165 l 0.61263,-0.97971 7.43863,4.74825 0.73731,1.03897 z"
             id="path1225" /><path
             d="m 700.71001,237.9337 q 2.91937,5.42722 0.56524,10.93247 -2.02068,4.68668 -6.58685,7.14288 -3.20937,1.72637 -7.32511,1.95538 -4.11573,0.22902 -7.24534,-1.58632 -3.11556,-1.78925 -4.89807,-5.10299 -2.90534,-5.40113 -0.31242,-10.90025 2.18119,-4.63845 6.69518,-7.06659 3.28765,-1.76847 7.39331,-1.89113 4.14578,-0.11062 7.11685,1.72272 2.99716,1.8193 4.59721,4.79383 z m -2.13111,0.10344 q -0.74388,-1.3829 -2.33675,-2.34275 -1.55275,-0.9478 -4.07722,-0.70005 -2.52447,0.24775 -5.75993,1.98815 -5.21848,2.8071 -7.89308,6.90354 -2.66056,4.12253 -0.83595,7.51455 1.36144,2.53096 4.33307,3.05195 2.97162,0.52098 8.05964,-2.21593 6.36655,-3.42466 8.54577,-8.12933 1.50835,-3.19996 -0.0356,-6.07013 z"
             id="path1227" /></g><g
           aria-label="Kebebasan, Kemerdekaan, Revolusi!"
           id="text2010"
           style="font-size:60.6777px;font-family:'Times New Roman';-inkscape-font-specification:'Times New Roman, ';stroke-width:0.264583"><path
             d="m 87.244486,513.93648 -8.566147,19.04989 q -2.127738,4.69398 -2.468041,7.57597 -0.312572,2.87155 0.428616,5.3467 l -1.02603,0.38598 -6.728542,-17.88619 1.02603,-0.38598 q 0.605047,1.60837 1.392723,2.10343 0.825839,0.51235 1.491371,0.26199 0.665533,-0.25036 1.088094,-0.72587 0.432994,-0.44778 1.322093,-2.45996 l 7.957129,-17.80783 -12.11824,4.55872 q -2.856244,1.07448 -3.635737,1.77923 -0.588945,0.5381 -0.754275,1.61325 -0.216964,1.44277 0.283765,2.77384 l 0.479865,1.2756 -1.026029,0.38598 -6.029608,-16.02824 1.026029,-0.38598 0.500729,1.33106 q 0.876275,2.32937 2.631481,2.87197 1.137741,0.33171 4.520865,-0.94097 l 24.291941,-9.1383 q 2.856245,-1.07448 3.663468,-1.78966 0.561215,-0.52767 0.736977,-1.57509 0.206531,-1.47051 -0.294198,-2.80157 l -0.500728,-1.33107 1.026029,-0.38598 6.029604,16.02825 -1.02603,0.38597 -0.47986,-1.2756 q -0.4903,-1.30333 -1.5871,-2.28354 -0.76708,-0.69274 -1.779635,-0.69169 -1.012559,0.001 -3.785612,1.04424 l -11.508168,4.32922 q 0.735517,0.3564 4.95094,2.47423 10.640962,5.39851 13.811215,6.1685 1.39088,0.33145 2.2228,0.0185 0.6378,-0.23994 0.89015,-0.99962 0.28008,-0.77011 -0.24151,-2.15664 l -0.32339,-0.85965 1.02603,-0.38597 5.19506,13.8098 -1.02603,0.38598 q -0.48673,-1.20971 -1.16731,-2.09326 -0.68059,-0.88355 -2.11042,-1.99172 -1.4021,-1.1186 -4.13606,-2.49589 -0.78411,-0.40144 -7.802423,-3.49077 z"
             id="path4233" /><path
             d="m 93.853952,543.97971 q -5.431455,2.65159 -7.199645,6.8305 -1.76819,4.17891 0.0041,7.76457 1.181537,2.39044 3.349458,3.50014 2.20761,1.12314 5.98563,0.74298 l -0.124235,1.08594 q -3.91447,1.24079 -8.241745,0.0417 -4.300715,-1.21224 -6.2962,-5.24943 -2.166152,-4.38247 -0.315544,-9.19701 1.890297,-4.8011 7.653909,-7.64992 6.2417,-3.08513 11.296498,-1.61767 5.094482,1.48089 7.483812,6.31489 2.02174,4.09031 0.61227,8.05886 -1.38291,3.95543 -5.89818,6.18722 z m 1.540505,-0.76144 5.566353,11.26162 q 2.27168,-1.28808 3.0178,-2.18566 1.15918,-1.39919 1.3527,-3.14732 0.20666,-1.72156 -0.50227,-3.15582 -1.08964,-2.20452 -3.68252,-3.10417 -2.553204,-0.88623 -5.752063,0.33135 z"
             id="path4235" /><path
             d="m 111.76554,566.33246 q 6.72723,0.56105 9.07348,4.47425 2.14818,3.58287 0.67324,8.09444 -1.44954,4.49634 -6.76032,7.68053 -6.20014,3.71743 -12.45442,1.87101 -5.370249,-1.58192 -7.975496,-5.9271 -1.218829,-2.03284 -1.746462,-4.58373 -0.512397,-2.52548 -0.348834,-5.59442 l 24.114482,-14.45836 q 3.96403,-2.37672 4.75692,-3.12847 0.80813,-0.72635 0.8947,-1.33098 0.0866,-0.60462 -0.27908,-1.21447 -0.42659,-0.71149 -1.47304,-1.53496 l 0.67607,-0.88899 7.03569,5.28151 0.68559,1.14346 z m -1.62626,0.97507 -13.924913,8.34898 q -0.493518,2.05769 -0.331479,3.82598 0.202684,1.77845 1.0711,3.22685 1.386418,2.31235 5.115822,2.77082 3.74463,0.48389 8.59802,-2.42607 4.47223,-2.68142 5.65722,-6.12097 1.22563,-3.42937 -0.2979,-5.97041 -0.80748,-1.34675 -2.30103,-2.28215 -1.11763,-0.71171 -3.58684,-1.37303 z"
             id="path4237" /><path
             d="m 120.88797,591.27549 q -4.93161,3.4944 -6.0013,7.90412 -1.0697,4.40971 1.25872,7.66186 1.55227,2.16811 3.87102,2.91292 2.36008,0.75166 6.02702,-0.23399 l 0.0529,1.09174 q -3.66253,1.85701 -8.1267,1.37289 -4.44008,-0.50137 -7.0617,-4.16306 -2.84584,-3.97485 -1.79752,-9.02515 1.08966,-5.04346 6.31719,-8.78617 5.66116,-4.05316 10.88665,-3.42178 5.26683,0.63822 8.40588,5.0226 2.65611,3.70987 1.90643,7.85402 -0.72559,4.12691 -4.82089,7.05899 z m 1.39722,-1.00035 7.31294,10.21417 q 2.03369,-1.63823 2.62497,-2.64458 0.91785,-1.56811 0.82636,-3.32453 -0.0743,-1.73233 -1.00561,-3.0332 -1.43155,-1.99947 -4.13573,-2.46832 -2.66285,-0.46201 -5.62293,1.25646 z"
             id="path4239" /><path
             d="m 142.1763,610.43553 q 6.7294,-0.53446 9.67769,2.94772 2.69942,3.18823 1.97363,7.87896 -0.70318,4.67159 -5.429,8.67286 -5.51722,4.67133 -11.98779,3.86083 -5.55541,-0.69247 -8.82917,-4.55904 -1.53158,-1.80893 -2.46487,-4.24089 -0.91414,-2.40934 -1.24912,-5.46433 l 21.45836,-18.16842 q 3.5274,-2.98659 4.18826,-3.85669 0.68,-0.8475 0.66764,-1.45816 -0.0124,-0.61067 -0.47185,-1.15335 -0.53605,-0.63312 -1.70192,-1.27649 l 0.52338,-0.98663 7.79731,4.07396 0.86152,1.01752 z m -1.44714,1.22526 -12.39113,10.49135 q -0.15419,2.11043 0.29173,3.82922 0.48767,1.72226 1.57893,3.01111 1.74217,2.05766 5.49662,1.90688 3.7736,-0.12817 8.0924,-3.78483 3.97964,-3.36948 4.59268,-6.95541 0.65481,-3.58245 -1.25967,-5.84361 -1.01468,-1.19841 -2.63987,-1.87991 -1.21802,-0.52157 -3.76169,-0.7748 z"
             id="path4241" /><path
             d="m 153.63439,650.41891 q -5.23627,-0.67999 -6.34589,-1.08007 -1.65393,-0.61058 -2.92954,-1.89086 -1.9866,-1.99389 -1.91888,-4.65443 0.0886,-2.63954 2.31339,-4.85617 1.40622,-1.40108 3.06199,-1.7961 2.28458,-0.56147 5.65596,0.30365 3.39228,0.88611 10.13242,4.04096 l 0.75558,-0.75282 q 2.8754,-2.86489 3.02569,-4.85487 0.17121,-1.96899 -1.56446,-3.71102 -1.31743,-1.32227 -2.80476,-1.38784 -1.50825,-0.0866 -2.43173,0.83355 l -1.1755,1.25485 q -0.96547,0.96194 -1.99205,0.98101 -1.00568,0.0401 -1.80032,-0.7575 -0.77373,-0.77657 -0.72991,-1.82399 0.0647,-1.02643 1.0092,-1.96746 1.805,-1.7984 5.15638,-1.45706 3.35138,0.34133 6.67633,3.67848 2.55122,2.56057 3.3218,5.05504 0.58315,1.88657 -0.21655,3.85441 -0.52609,1.27699 -3.31754,4.05823 l -6.52736,6.50352 q -2.74947,2.73942 -3.27457,3.47171 -0.5041,0.71138 -0.48395,1.15137 0.0411,0.46097 0.35473,0.7758 0.33458,0.33581 0.73244,0.44129 0.71199,0.1689 3.22599,0.17351 l -1.17535,1.17105 q -5.49035,0.78605 -7.62333,-1.35476 -1.02467,-1.02843 -0.91751,-2.34808 0.10717,-1.31966 1.8073,-3.0554 z m 1.36424,-1.35926 7.32492,-7.29815 q -4.41695,-1.91454 -5.86177,-2.31524 -2.5755,-0.73796 -4.29394,-0.44781 -1.71843,0.29016 -2.91477,1.48212 -1.51116,1.50564 -1.6194,3.41189 -0.0872,1.88535 1.0838,3.06069 1.58929,1.59511 6.28116,2.1065 z"
             id="path4243" /><path
             d="m 190.73107,651.66298 -6.06721,6.9741 -0.73764,-0.64172 q 2.00918,-4.02483 1.69865,-6.37631 -0.28817,-2.33203 -2.34463,-4.12107 -1.5647,-1.36124 -3.24539,-1.37037 -1.68068,-0.009 -2.55576,0.99675 -1.08899,1.25176 -1.15154,2.76816 -0.10436,1.5193 1.12464,4.39492 l 1.88284,4.4262 q 2.61247,6.16051 -0.53782,9.78167 -2.43077,2.79411 -6.05165,2.6679 -3.57908,-0.12913 -6.19437,-2.40433 -1.87764,-1.63348 -3.70837,-4.40425 -0.54318,-0.86526 -1.01259,-1.27363 -0.51412,-0.44726 -1.3103,-0.11889 l -0.73765,-0.64172 6.3589,-7.30939 0.73765,0.64172 q -2.09659,3.6739 -1.71139,6.7972 0.3852,3.12331 2.57578,5.02903 1.54235,1.34179 3.28137,1.28386 1.78082,-0.0608 2.88926,-1.33495 1.34178,-1.54235 1.16046,-3.5458 -0.15896,-1.984 -2.00001,-6.4131 -1.84104,-4.42911 -1.71904,-6.60065 0.10255,-2.1492 1.79437,-4.0939 2.19742,-2.52587 5.3965,-2.72734 3.22144,-0.18201 5.97084,2.20987 1.20706,1.05009 2.48097,3.06157 0.8483,1.32705 1.2283,1.65763 0.35765,0.31114 0.69495,0.32969 0.3373,0.0185 1.07224,-0.28457 z"
             id="path4245" /><path
             d="m 191.67121,682.79397 q -5.27978,0.0695 -6.43492,-0.16921 -1.72381,-0.36986 -3.16809,-1.45631 -2.24929,-1.692 -2.55955,-4.33525 -0.28659,-2.62544 1.60133,-5.13517 1.19332,-1.58634 2.77634,-2.21218 2.18187,-0.87978 5.64185,-0.50151 3.48367,0.39608 10.60309,2.56319 l 0.64118,-0.85236 q 2.44005,-3.24371 2.30662,-5.23489 -0.10976,-1.97337 -2.07493,-3.45166 -1.49163,-1.12207 -2.97323,-0.97605 -1.50528,0.1282 -2.28894,1.16998 l -0.98567,1.40887 q -0.81928,1.08913 -1.83279,1.25359 -0.98983,0.18228 -1.88955,-0.49453 -0.87604,-0.65899 -0.9812,-1.70204 -0.0815,-1.02524 0.71999,-2.09069 1.53171,-2.0362 4.89763,-2.17359 3.36592,-0.13739 7.13051,2.6945 2.88856,2.1729 4.00511,4.53287 0.8448,1.78481 0.33225,3.84617 -0.33968,1.33869 -2.70849,4.48769 l -5.5391,7.36346 q -2.3332,3.10166 -2.74913,3.90101 -0.39813,0.77568 -0.31579,1.20836 0.10602,0.4505 0.46117,0.71766 0.37882,0.28497 0.78762,0.33296 0.72875,0.0662 3.21799,-0.28574 l -0.9974,1.32589 q -5.32338,1.55672 -7.73841,-0.25996 -1.16016,-0.87272 -1.24122,-2.19424 -0.0811,-1.32152 1.35573,-3.28082 z m 1.15769,-1.53898 6.21591,-8.26318 q -4.64382,-1.2688 -6.13087,-1.46055 -2.65412,-0.36526 -4.31404,0.16566 -1.65992,0.53092 -2.67513,1.88049 -1.28236,1.70473 -1.11917,3.60706 0.181,1.87867 1.50689,2.87606 1.79943,1.35361 6.51641,1.19446 z"
             id="path4247" /><path
             d="m 217.17254,678.29128 q 7.10541,-2.303 10.75961,0.0118 1.87716,1.18909 2.62624,2.99632 0.76493,1.78221 0.20236,4.44203 -0.40063,1.85053 -2.3666,4.9541 l -6.19912,9.78625 q -1.37934,2.1775 -1.52043,3.17535 -0.12105,0.80012 0.25768,1.53104 0.40376,0.74676 2.05566,1.79316 l -0.57077,0.90104 -11.33803,-7.18211 0.57076,-0.90103 0.47555,0.30123 q 1.60184,1.01469 2.5288,0.93551 0.96783,-0.0884 1.82059,-0.8809 0.33794,-0.31202 1.59045,-2.28929 l 5.94544,-9.38579 q 1.98182,-3.1286 2.04373,-5.05341 0.10278,-1.93398 -1.82443,-3.15478 -2.97843,-1.88669 -7.99291,-0.50378 l -7.65774,12.08889 q -1.47447,2.32768 -1.54795,3.05271 -0.10938,0.9478 0.26935,1.67871 0.41961,0.72174 2.29676,1.91083 l -0.57076,0.90103 -11.33803,-7.1821 0.57076,-0.90104 0.50058,0.3171 q 1.75201,1.10981 2.90761,0.61431 1.19648,-0.50467 2.78193,-3.00755 l 5.39054,-8.50978 q 2.616,-4.12975 2.98653,-5.15762 0.39557,-1.01201 0.20121,-1.59106 -0.16932,-0.56319 -0.82007,-0.97541 -0.7008,-0.44393 -1.91474,-0.68682 l 0.19533,-1.13886 8.68365,1.57263 1.07624,0.68175 z"
             id="path4249" /><path
             d="m 220.77832,718.2476 0.62608,-1.14344 q 3.16048,0.58203 5.64026,-0.49223 2.49154,-1.03404 3.62987,-3.11302 0.27035,-0.49376 0.22144,-0.95965 -0.0539,-0.33349 -0.23576,-0.4331 -0.28586,-0.15652 -1.53197,-0.16325 -0.59583,-0.0222 -1.11558,-0.30682 -1.27338,-0.69722 -1.61436,-1.8635 -0.34099,-1.16627 0.38469,-2.49162 0.69723,-1.27338 2.15677,-1.65646 1.48554,-0.36885 2.88885,0.39952 1.71516,0.93912 2.21523,3.17207 0.54028,2.22119 -0.81148,4.68998 -1.4656,2.67669 -4.58884,3.93907 -3.11149,1.30261 -7.8652,0.42245 z"
             id="path4251" /><path
             d="m 274.50277,708.30108 8.37405,19.13511 q 2.05199,4.72758 3.9602,6.91399 1.91909,2.15885 4.25149,3.27045 l -0.40243,1.01969 -17.77569,-7.01526 0.40243,-1.01969 q 1.59843,0.63083 2.49406,0.37911 0.93407,-0.2684 1.1951,-0.92982 0.26104,-0.66142 0.19209,-1.29381 -0.0414,-0.62151 -0.93644,-2.63104 l -7.86195,-17.85006 -4.75298,12.04338 q -1.12026,2.8386 -1.12092,3.88944 0.004,0.79775 0.68981,1.64186 0.92401,1.1291 2.24685,1.65117 l 1.26773,0.50031 -0.40243,1.01969 -15.92922,-6.28654 0.40242,-1.01969 1.32285,0.52206 q 2.31497,0.91362 3.89516,-0.0235 1.00947,-0.62086 2.33638,-3.98308 l 9.52771,-24.14187 q 1.12026,-2.8386 1.13179,-3.91701 -0.0146,-0.77018 -0.67312,-1.60341 -0.95157,-1.13999 -2.27441,-1.66205 l -1.32285,-0.52207 0.40243,-1.01969 15.92922,6.28655 -0.40242,1.01969 -1.26773,-0.50032 q -1.29528,-0.51119 -2.75804,-0.35589 -1.02836,0.10378 -1.70711,0.85516 -0.67876,0.75138 -1.76639,3.5073 l -4.5137,11.43707 q 0.75784,-0.30609 5.15691,-2.00995 11.14346,-4.26582 13.84188,-6.09938 1.17916,-0.8087 1.50545,-1.63548 0.25015,-0.63386 -0.14369,-1.33077 -0.38297,-0.72447 -1.76093,-1.26829 l -0.85434,-0.33717 0.40243,-1.01969 13.72449,5.41644 -0.40243,1.01969 q -1.22348,-0.45101 -2.33525,-0.5394 -1.11178,-0.0884 -2.8929,0.22792 -1.77024,0.28877 -4.62609,1.39131 -0.82383,0.3119 -7.82418,3.44173 z"
             id="path4253" /><path
             d="m 301.2121,723.55848 q -1.67898,5.80626 0.23268,9.92152 1.91166,4.11526 5.7594,5.20749 2.56515,0.72815 4.8427,-0.13445 2.31415,-0.88302 4.5676,-3.93915 l 0.72174,0.82084 q -1.70695,3.73484 -5.49986,6.13838 -3.78482,2.37504 -8.11708,1.14527 -4.70278,-1.33494 -7.03039,-5.93785 -2.29102,-4.62332 -0.53536,-10.8082 1.90129,-6.6979 6.38136,-9.46075 4.51667,-2.78327 9.70398,-1.31078 4.38927,1.24595 6.3857,4.95409 2.00452,3.67965 0.62912,8.52494 z m 0.46925,-1.6531 12.08473,3.43041 q 0.56947,-2.5486 0.4047,-3.70411 -0.25947,-1.79836 -1.42566,-3.11495 -1.13768,-1.30849 -2.67678,-1.74538 -2.36564,-0.67152 -4.77264,0.64711 -2.37041,1.29822 -3.61435,4.48692 z"
             id="path4255" /><path
             d="m 329.80428,725.81957 q 3.42634,-2.4117 4.02786,-2.75824 1.50634,-0.88094 3.13077,-1.23013 1.62443,-0.34919 3.11313,-0.0905 2.51036,0.43629 4.06649,2.21034 1.55614,1.77404 1.68718,4.65365 3.61537,-2.98029 5.87558,-3.70014 2.26529,-0.74903 4.45456,-0.36855 2.13088,0.37034 3.57275,1.76367 1.47614,1.3692 2.0082,4.01779 0.34794,1.80464 -0.28113,5.42423 l -1.99882,11.50094 q -0.43629,2.51036 -0.21915,3.5104 0.18029,0.69291 0.88725,1.29693 0.71204,0.57483 2.49265,0.88429 l -0.18264,1.05085 -13.19397,-2.29306 0.18263,-1.05085 0.55461,0.0964 q 1.72223,0.29932 2.80218,-0.20465 0.75255,-0.35036 1.22201,-1.32128 0.20301,-0.47594 0.60886,-2.81116 l 1.99882,-11.50095 q 0.56819,-3.2693 0.0134,-4.74903 -0.81374,-2.06602 -3.3241,-2.50231 -1.54708,-0.26888 -3.26033,0.24531 -1.67898,0.49007 -4.2627,2.2062 l -0.11419,0.31095 -0.15976,1.26532 -2.21697,12.75613 q -0.47687,2.74388 -0.30165,3.46599 0.20441,0.72718 0.96975,1.34134 0.77042,0.58497 2.81374,0.94009 l -0.18263,1.05085 -13.51507,-2.34886 0.18263,-1.05085 q 2.21846,0.38556 3.1271,0.002 0.93783,-0.3783 1.44156,-1.37334 0.23219,-0.47087 0.64819,-2.86447 l 1.99882,-11.50094 q 0.56819,-3.26931 -0.1465,-4.86704 -0.95969,-2.0914 -3.26572,-2.49217 -1.57627,-0.27395 -3.27047,0.30369 -2.64601,0.86329 -4.23859,2.24046 l -2.49092,14.3324 q -0.45658,2.62712 -0.24327,3.47613 0.2425,0.85409 0.87204,1.38451 0.6638,0.5063 2.85307,0.88679 l -0.18263,1.05084 -13.22317,-2.29813 0.18263,-1.05085 q 1.83898,0.31961 2.63469,0.067 0.80078,-0.28184 1.32737,-1.0624 0.53167,-0.80976 0.96289,-3.29093 l 1.7756,-10.21657 q 0.76604,-4.40773 0.72655,-5.73775 -0.0369,-0.99879 -0.41389,-1.42517 -0.37191,-0.45557 -1.13085,-0.58747 -0.81733,-0.14205 -2.03184,0.0979 l -0.25522,-1.12695 8.62469,-1.86911 1.25518,0.21814 z"
             id="path4257" /><path
             d="m 370.37819,737.06332 q -0.43516,6.02846 2.29031,9.65635 2.72546,3.6279 6.7162,3.89631 2.66048,0.17894 4.70893,-1.13832 2.08,-1.34484 3.64883,-4.80269 l 0.87663,0.65285 q -0.89317,4.00811 -4.1035,7.14769 -3.20834,3.11002 -7.70161,2.80781 -4.87757,-0.32806 -8.11127,-4.34648 -3.20216,-4.04599 -2.77071,-10.46072 0.46723,-6.94684 4.27501,-10.58074 3.83933,-3.66148 9.21943,-3.29962 4.55239,0.30619 7.27613,3.51824 2.72573,3.1825 2.38773,8.20787 z m 0.11532,-1.71454 12.53386,0.84301 q 0.0272,-2.61131 -0.37424,-3.70731 -0.62769,-1.70513 -2.04211,-2.75049 -1.38487,-1.04337 -2.98116,-1.15074 -2.45356,-0.16502 -4.53383,1.62522 -2.04871,1.76267 -2.60252,5.14031 z"
             id="path4259" /><path
             d="m 399.52636,727.2684 -0.002,6.10333 q 3.4089,-6.10237 6.99386,-6.10137 1.62953,4.5e-4 2.69585,1.0081 1.06632,0.97801 1.06596,2.28163 -3.2e-4,1.15549 -0.77087,1.95522 -0.77055,0.79974 -1.83715,0.79944 -1.03697,-2.9e-4 -2.34031,-1.008 -1.2737,-1.03733 -1.89589,-1.0375 -0.5333,-1.5e-4 -1.15565,0.59223 -1.33359,1.21437 -2.7565,3.99898 l -0.004,13.0066 q -6.3e-4,2.25171 0.56197,3.40735 0.38494,0.80006 1.36251,1.33363 0.97756,0.53357 2.81449,0.53409 l -3e-4,1.0666 -13.89543,-0.004 3e-4,-1.0666 q 2.07394,5.8e-4 3.08147,-0.65095 0.74082,-0.47384 1.03739,-1.51073 0.14828,-0.50363 0.14894,-2.87385 l 0.003,-10.51786 q 10e-4,-4.74045 -0.20583,-5.62934 -0.1775,-0.91851 -0.71069,-1.33345 -0.50356,-0.41493 -1.27388,-0.41514 -0.91846,-2.6e-4 -2.07407,0.44383 l -0.29598,-1.06668 8.20783,-3.31602 z"
             id="path4261" /><path
             d="m 430.69956,750.84403 q -1.83202,2.2103 -3.65783,3.26172 -1.82793,1.02187 -4.0148,1.1783 -4.43284,0.31711 -8.00694,-3.14015 -3.57622,-3.48682 -3.99269,-9.30861 -0.41646,-5.8218 2.90343,-10.90096 3.31778,-5.10871 9.08047,-5.52095 3.57583,-0.25579 6.07324,1.85272 l -0.35727,-4.99433 q -0.33191,-4.63971 -0.64443,-5.68668 -0.28297,-1.04908 -0.78329,-1.39943 -0.50032,-0.35036 -1.20957,-0.29962 -0.76836,0.055 -2.00528,0.6187 l -0.45817,-1.00685 7.83099,-3.88698 1.32985,-0.0951 2.23876,31.29585 q 0.34036,4.75791 0.62333,5.807 0.31041,1.01741 0.81284,1.39732 0.53199,0.37779 1.18214,0.33129 0.79791,-0.0571 2.09182,-0.6546 l 0.39907,1.01107 -7.79933,3.91442 -1.35941,0.0973 z m -0.14799,-2.06866 -0.99782,-13.94867 q -0.32107,-1.99687 -1.32602,-3.58837 -1.00495,-1.59151 -2.54176,-2.31327 -1.50937,-0.75343 -2.89832,-0.65407 -2.6006,0.18604 -4.4727,2.66653 -2.4694,3.26582 -2.04659,9.17627 0.42703,5.96956 3.25595,8.97517 2.8268,2.97605 6.01844,2.74774 2.68926,-0.19238 5.00882,-3.06133 z"
             id="path4263" /><path
             d="m 443.99066,735.4526 q 0.88823,5.97852 4.3384,8.92575 3.45017,2.94723 7.40356,2.34005 2.6356,-0.40479 4.34799,-2.13657 1.73717,-1.76556 2.51526,-5.48208 l 0.99777,0.44626 q 0.001,4.10641 -2.4483,7.86981 -2.45399,3.73412 -6.90522,4.41775 -4.83193,0.74211 -8.86319,-2.47557 -4.00647,-3.25147 -4.98245,-9.60619 -1.05694,-6.88184 1.868,-11.25781 2.94973,-4.40975 8.27949,-5.22832 4.5098,-0.69264 7.86772,1.84911 3.35341,2.51246 4.11801,7.49081 z m -0.26086,-1.6985 12.41659,-1.90699 q -0.54221,-2.55454 -1.17267,-3.53682 -0.98398,-1.52748 -2.59213,-2.2397 -1.57886,-0.71672 -3.16021,-0.47385 -2.43061,0.3733 -4.07104,2.57363 -1.61564,2.16655 -1.42054,5.58373 z"
             id="path4265" /><path
             d="m 466.76229,705.84344 6.22535,26.26318 5.26843,-7.70395 q 1.66867,-2.46605 1.89161,-3.06698 0.14863,-0.40061 0.0666,-0.74656 -0.13667,-0.57658 -0.72243,-0.86401 -0.56377,-0.3231 -1.67294,-0.12109 l -0.21867,-0.92252 11.47392,-2.71975 0.21868,0.92253 q -2.35031,0.61801 -3.77873,1.65692 -1.3996,1.03207 -2.8703,3.17716 l -5.29193,7.86176 8.80436,6.95632 q 3.66576,2.87628 4.87145,3.59529 1.70497,1.02696 2.83848,1.18455 0.78906,0.11745 2.57646,-0.30622 l 0.246,1.03784 -12.82888,3.04092 -0.24601,-1.03784 q 1.08867,-0.28851 1.39511,-0.66563 0.32844,-0.41279 0.1986,-0.96054 -0.15717,-0.66307 -1.65884,-1.86 l -10.55417,-8.42938 2.07739,8.76401 q 0.60819,2.56577 1.14547,3.29098 0.56612,0.71838 1.31118,0.90715 0.74507,0.18878 2.97174,-0.30857 l 0.246,1.03784 -13.43429,3.18442 -0.24601,-1.03784 q 2.01803,-0.47835 2.91087,-1.20761 0.53024,-0.46063 0.69019,-1.19886 0.20693,-1.05386 -0.34659,-3.389 l -5.69916,-24.04335 q -1.08653,-4.5838 -1.5275,-5.54498 -0.44781,-0.99001 -0.99791,-1.25545 -0.55694,-0.29427 -1.30649,-0.1166 -0.60541,0.14351 -1.70005,0.92061 l -0.72927,-0.89285 7.07612,-5.08756 z"
             id="path4267" /><path
             d="m 511.57559,733.03065 q -2.98364,4.35646 -3.84398,5.16339 -1.29505,1.1963 -3.01499,1.75142 -2.67858,0.86453 -5.01822,-0.40397 -2.31145,-1.2776 -3.27607,-4.26633 -0.60972,-1.8891 -0.20977,-3.54369 0.5372,-2.29041 2.83894,-4.90128 2.32993,-2.61996 8.20147,-7.19244 l -0.32761,-1.01504 q -1.24674,-3.86279 -2.95146,-4.90036 -1.67652,-1.04666 -4.01676,-0.29134 -1.77632,0.57332 -2.51014,1.86868 -0.76203,1.30446 -0.36162,2.54506 l 0.58421,1.61715 q 0.41861,1.29699 -0.0306,2.22029 -0.421,0.91419 -1.49243,1.26 -1.04323,0.33671 -1.95653,-0.17796 -0.88511,-0.52378 -1.29462,-1.79258 -0.78262,-2.42482 1.04337,-5.25573 1.82599,-2.8309 6.30909,-4.27785 3.43986,-1.11023 6.01222,-0.66403 1.94565,0.33715 3.33574,1.94325 0.89884,1.0486 2.10917,4.79861 l 2.83018,8.76883 q 1.19214,3.69362 1.60613,4.49399 0.40488,0.77217 0.80603,0.95402 0.42935,0.17275 0.85229,0.0362 0.45113,-0.14561 0.72577,-0.45218 0.47381,-0.55765 1.61952,-2.7954 l 0.50962,1.57895 q -1.79286,5.24857 -4.66881,6.1768 -1.38159,0.44591 -2.50867,-0.24883 -1.12708,-0.69474 -1.9015,-2.99768 z m -0.59151,-1.83271 -3.176,-9.84026 q -3.71151,3.06588 -4.72461,4.17118 -1.82704,1.95952 -2.34888,3.62232 -0.52184,1.6628 -0.003,3.26995 0.65522,2.03008 2.30444,2.99215 1.64012,0.93388 3.21908,0.42427 2.14286,-0.69162 4.72909,-4.63961 z"
             id="path4269" /><path
             d="m 536.49953,723.64144 q -2.64902,4.56767 -3.44651,5.43676 -1.20183,1.28993 -2.87536,1.97229 -2.60631,1.0627 -5.03438,-0.027 -2.40064,-1.10091 -3.58638,-4.009 -0.74947,-1.83814 -0.47455,-3.51804 0.36416,-2.32421 2.46391,-5.10011 2.12719,-2.78709 7.63981,-7.78644 l -0.4027,-0.98766 q -1.53252,-3.75858 -3.31015,-4.66557 -1.7502,-0.91817 -4.0273,0.0103 -1.72839,0.70473 -2.36315,2.05141 -0.6622,1.35786 -0.17,2.565 l 0.70367,1.56885 q 0.51456,1.262 0.13578,2.21635 -0.35134,0.94315 -1.39387,1.36823 -1.01509,0.41389 -1.96437,-0.0309 -0.92185,-0.45602 -1.42523,-1.69059 -0.96201,-2.3594 0.64685,-5.31911 1.60886,-2.9597 5.97101,-4.73831 3.34706,-1.36472 5.94562,-1.11241 1.96543,0.19049 3.4719,1.68798 0.97483,0.97835 2.4626,4.62719 l 3.47892,8.53225 q 1.4654,3.59398 1.93816,4.36109 0.46157,0.73968 0.87522,0.89098 0.44108,0.14012 0.8526,-0.0277 0.43896,-0.17898 0.68988,-0.50526 0.43071,-0.59156 1.40563,-2.90883 l 0.62643,1.53636 q -1.39477,5.36809 -4.19313,6.50909 -1.34431,0.54812 -2.52026,-0.0603 -1.17594,-0.60838 -2.12065,-2.84686 z m -0.7271,-1.78327 -3.904,-9.57478 q -3.47149,3.33522 -4.39897,4.51329 -1.67517,2.09084 -2.07101,3.78805 -0.39585,1.69721 0.24176,3.261 0.80541,1.97531 2.52205,2.81118 1.70546,0.80843 3.24181,0.182 2.08505,-0.85015 4.36836,-4.98074 z"
             id="path4271" /><path
             d="m 545.7119,699.44513 q 1.66627,-7.28108 5.52732,-9.23136 1.98342,-1.00186 3.91908,-0.71826 1.92231,0.25715 3.91736,2.104 1.38329,1.29286 3.03969,4.57211 l 5.22301,10.34021 q 1.16215,2.30076 1.94649,2.93356 0.62485,0.5142 1.44656,0.56385 0.84815,0.0363 2.59356,-0.84535 l 0.48089,0.95204 -11.97984,6.05121 -0.48089,-0.95204 0.50247,-0.25381 q 1.69251,-0.85491 2.09985,-1.69133 0.42042,-0.87622 0.17727,-2.01473 -0.0946,-0.45012 -1.14988,-2.53932 l -5.00928,-9.91708 q -1.66975,-3.30569 -3.29051,-4.34583 -1.60767,-1.07994 -3.64398,-0.0514 -3.14702,1.58961 -4.53104,6.60378 l 6.45195,12.7732 q 1.2423,2.45944 1.82708,2.8943 0.75762,0.57991 1.57933,0.62956 0.83479,0.01 2.81821,-0.99202 l 0.48089,0.95204 -11.97984,6.05121 -0.48089,-0.95204 0.52891,-0.26716 q 1.85119,-0.93507 2.01835,-2.18126 0.18025,-1.28599 -1.15556,-3.93054 l -4.54174,-8.99149 q -2.20409,-4.36352 -2.89654,-5.20869 -0.66601,-0.85854 -1.2628,-0.9886 -0.57033,-0.14342 -1.25792,0.20389 -0.74047,0.37403 -1.57148,1.29167 l -0.87757,-0.75166 5.80287,-6.64874 1.13715,-0.57439 z"
             id="path4273" /><path
             d="m 581.86829,716.83097 -0.66141,-1.12337 q 2.11861,-2.41638 2.46604,-5.09642 0.38799,-2.66954 -0.81458,-4.71204 -0.28561,-0.48509 -0.71081,-0.6817 -0.31401,-0.12456 -0.49272,-0.0193 -0.28085,0.16535 -0.92486,1.23216 -0.32427,0.50036 -0.83489,0.80101 -1.25103,0.73657 -2.42736,0.4321 -1.17634,-0.30447 -1.94298,-1.60656 -0.73657,-1.25103 -0.31805,-2.70081 0.44406,-1.46481 1.82274,-2.27654 1.68506,-0.99213 3.85901,-0.27796 2.18446,0.6736 3.61251,3.09906 1.54831,2.62971 1.0329,5.95877 -0.47485,3.33955 -3.66554,6.97163 z"
             id="path4275" /><path
             d="m 632.57745,669.27894 -8.51148,6.52578 -22.22131,-6.63245 q -1.16308,0.9664 -1.91547,1.54327 -0.30567,0.23435 -0.65835,0.50475 -0.37071,0.2469 -0.76494,0.51182 l 7.10265,9.26388 q 2.30745,3.00958 3.52464,3.23371 1.68666,0.34952 3.4736,-1.02054 l 1.24615,-0.95543 0.667,0.86996 -13.66069,10.4737 -0.667,-0.86996 1.19913,-0.91938 q 2.02207,-1.55032 1.88251,-3.53402 -0.0651,-1.10745 -2.15621,-3.83488 L 585.32601,663.8423 q -2.30746,-3.00959 -3.52464,-3.23371 -1.71017,-0.3315 -3.52062,1.05658 l -1.19914,0.91938 -0.667,-0.86996 11.61512,-8.90534 q 5.07868,-3.89384 8.0538,-4.9802 2.98062,-1.1279 6.18229,-0.40926 3.20716,0.67709 5.31632,3.42804 2.25338,2.93905 1.98385,6.5804 -0.24602,3.62333 -3.58161,7.59942 l 13.59598,4.09876 q 4.67281,1.42006 7.08835,1.21074 2.41555,-0.20932 5.24175,-1.92817 z m -35.20725,0.97189 q 0.44673,-0.34252 0.79393,-0.57138 0.32918,-0.25238 0.54079,-0.41462 4.5614,-3.49725 5.35135,-7.23893 0.81345,-3.75972 -1.53006,-6.81633 -2.28943,-2.98607 -5.59456,-3.40139 -3.29964,-0.45685 -6.37976,1.90469 -1.36372,1.04556 -3.34893,3.27697 z"
             id="path4277" /><path
             d="m 625.16574,652.55553 q 4.09634,4.44428 8.60664,4.9413 4.5103,0.49702 7.438,-2.22815 1.95181,-1.81677 2.394,-4.21173 0.44369,-2.43682 -1.00278,-5.94762 l 1.07602,-0.19204 q 2.31012,3.39499 2.40082,7.88442 0.0705,4.46774 -3.22586,7.53608 -3.57831,3.33076 -8.72121,2.93685 -5.14139,-0.43577 -9.52184,-5.14179 -4.74381,-5.09638 -4.78582,-10.35972 -0.0405,-5.3052 3.90647,-8.97913 3.33975,-3.10871 7.54575,-2.89511 4.18582,0.1919 7.61751,3.87864 z m -1.17081,-1.25783 9.19517,-8.55904 q -1.88484,-1.8075 -2.95854,-2.26524 -1.6726,-0.70979 -3.40291,-0.39445 -1.70861,0.29516 -2.87969,1.38523 -1.8,1.67547 -1.91921,4.41741 -0.11771,2.70007 1.96518,5.41609 z"
             id="path4279" /><path
             d="m 632.04209,632.34764 8.6139,-9.42671 0.80925,0.73948 -0.5596,0.61241 q -0.77945,0.85299 -0.78359,1.69203 0.0158,0.81717 0.71574,1.45671 0.76551,0.69951 2.23505,1.19952 l 15.32407,5.45416 -7.20568,-15.17311 q -0.76514,-1.62226 -1.39942,-2.20185 -0.3062,-0.2798 -0.66293,-0.2847 -0.54792,-0.0592 -0.99704,0.2127 -0.47099,0.2519 -1.51025,1.38923 l -0.80926,-0.73948 5.97577,-6.53964 0.80925,0.73948 q -0.95178,1.21727 -0.97967,1.99446 -0.0434,1.36509 0.92806,3.3765 l 10.69577,22.81718 -0.81942,0.89674 -23.4422,-8.297 q -1.62077,-0.59806 -2.52353,-0.6203 -0.92464,-0.0422 -1.89415,0.31602 -0.5366,0.19195 -1.71087,1.12565 z"
             id="path4281" /><path
             d="m 659.29791,599.56518 q 3.75416,-4.8871 9.74062,-4.99583 5.10314,-0.0774 9.21488,3.08109 2.88996,2.22001 4.78553,5.8804 1.89558,3.6604 1.52222,7.25907 -0.35531,3.57518 -2.64751,6.55913 -3.7361,4.8636 -9.81484,4.75201 -5.12492,-0.0887 -9.18967,-3.21118 -2.96045,-2.27415 -4.75489,-5.96893 -1.79988,-3.73633 -1.34514,-7.19777 0.43124,-3.47949 2.4888,-6.15799 z m 0.96771,1.90154 q -0.95659,1.24527 -1.17937,3.0916 -0.22822,1.80478 1.03233,4.00599 1.26054,2.20121 4.174,4.43927 4.69913,3.60976 9.53186,4.37068 4.85078,0.73743 7.19712,-2.317 1.75074,-2.27908 1.00816,-5.20321 -0.74258,-2.92414 -5.32423,-6.44365 -5.73294,-4.40392 -10.91745,-4.46371 -3.53705,-0.0645 -5.52242,2.52003 z"
             id="path4283" /><path
             d="m 661.71971,571.68124 29.93533,19.99287 q 2.11888,1.41513 3.00621,1.58022 0.90378,0.14044 1.70118,-0.25333 0.77277,-0.41022 1.94108,-2.15952 l 0.88697,0.59238 -7.38831,11.06252 -0.88697,-0.59238 q 1.03666,-1.55221 1.09483,-2.3328 0.0582,-0.78059 -0.46705,-1.59454 -0.52523,-0.81394 -2.61947,-2.21262 l -20.49893,-13.69059 q -3.81891,-2.55053 -4.79643,-2.95399 -1.00216,-0.41991 -1.58573,-0.23962 -0.56712,0.15566 -0.96204,0.74697 -0.42783,0.6406 -0.69183,1.8894 l -1.14207,-0.15708 1.73276,-8.56917 z"
             id="path4285" /><path
             d="m 689.38537,554.70282 14.24737,8.20966 q 4.08168,2.35195 5.10938,2.70477 1.01682,0.31236 1.61289,0.10872 0.61086,-0.22932 0.93629,-0.79408 0.45855,-0.7958 0.59904,-2.04843 l 1.10557,0.15833 -1.15223,8.70535 -0.66565,1.1552 -4.98016,-2.86968 q 1.5404,4.92256 1.47042,7.0023 -0.07,2.07974 -1.09063,3.85104 -1.139,1.97666 -3.11167,2.78905 -1.98356,0.77192 -4.10595,0.30123 -2.12239,-0.47069 -5.40827,-2.36409 l -10.49942,-6.05 q -1.66861,-0.96149 -2.51747,-0.9719 -0.84887,-0.0104 -1.59677,0.51608 -0.75878,0.48602 -1.79815,2.34912 l -0.94982,-0.54731 4.74829,-8.24037 15.73628,9.0676 q 3.28588,1.8934 4.96358,1.35557 1.69248,-0.56351 2.62439,-2.18078 0.63606,-1.10385 0.74172,-2.88947 0.12046,-1.81129 -0.72112,-4.86081 l -13.32322,-7.67714 q -2.00233,-1.15379 -3.12442,-0.80872 -1.13297,0.3046 -2.5156,2.5854 l -0.94983,-0.54731 z"
             id="path4287" /><path
             d="m 698.33089,534.54418 8.33463,3.99788 -0.42285,0.88155 q -4.41382,-0.86851 -6.59846,0.0552 -2.17183,0.89697 -3.35069,3.35462 -0.89696,1.86995 -0.45955,3.49274 0.43741,1.62279 1.63952,2.19941 1.49596,0.71756 2.97454,0.37528 1.49248,-0.30276 3.93861,-2.25111 l 3.76747,-2.99041 q 5.24582,-4.15429 9.57342,-2.07847 3.33919,1.60172 4.17883,5.12616 0.82574,3.48492 -0.67346,6.61041 -1.07636,2.24394 -3.26164,4.74459 -0.68999,0.75341 -0.95908,1.31439 -0.29472,0.61441 0.23326,1.29485 l -0.42286,0.88154 -8.73533,-4.19008 0.42285,-0.88155 q 4.09869,1.04594 7.00763,-0.15466 2.90895,-1.20059 4.1647,-3.81852 0.88414,-1.84324 0.36659,-3.50447 -0.53145,-1.70076 -2.05412,-2.43114 -1.84324,-0.88415 -3.72665,-0.17743 -1.87059,0.68001 -5.65196,3.63089 -3.78137,2.95087 -5.90737,3.40979 -2.09929,0.47172 -4.42337,-0.64307 -3.01863,-1.44795 -4.0622,-4.47874 -1.03076,-3.0575 0.54532,-6.34327 0.69195,-1.44253 2.29301,-3.20476 1.05421,-1.17018 1.27204,-1.62431 0.20502,-0.42742 0.13335,-0.75754 -0.0717,-0.33011 -0.55903,-0.95821 z"
             id="path4289" /><path
             d="m 689.63609,518.63979 q 0.47377,-1.15065 1.62279,-1.60674 1.1329,-0.49476 2.28355,-0.021 1.15065,0.47377 1.63413,1.63407 0.49476,1.13291 0.021,2.28355 -0.47377,1.15065 -1.63407,1.63413 -1.1603,0.48349 -2.31095,0.01 -1.15064,-0.47377 -1.61801,-1.59539 -0.48348,-1.1603 0.002,-2.33834 z m 14.05912,3.12936 20.16372,8.30229 q 2.35609,0.97011 3.28595,0.96848 0.91374,-0.0403 1.56802,-0.5399 0.66555,-0.52698 1.39877,-2.30774 l 0.98627,0.40609 -5.01973,12.19138 -0.98627,-0.40609 q 0.75578,-1.83556 0.65908,-2.61232 -0.0967,-0.77676 -0.77196,-1.47132 -0.66396,-0.72196 -2.99266,-1.68078 l -9.67091,-3.98195 q -4.08206,-1.68076 -5.38902,-1.93052 -0.95565,-0.1692 -1.45361,0.10638 -0.52535,0.2643 -0.81864,0.97661 -0.31585,0.7671 -0.35612,2.03216 l -1.14419,-0.0226 0.045,-8.82478 z"
             id="path4291" /><path
             d="m 725.21507,513.64654 -0.374,1.06192 -23.50177,-5.513 q -1.54015,-0.35396 -2.26672,-0.60986 -1.76055,-0.62006 -2.49768,-1.91625 -0.72729,-1.32414 -0.2647,-2.63757 0.46258,-1.31343 1.83945,-1.83367 1.38671,-0.54819 3.4826,0.18997 0.67069,0.23621 1.83297,0.77121 z m 4.44207,2.19271 q 0.45274,-1.28548 1.68988,-1.85494 1.21904,-0.60724 2.47658,-0.16434 1.28548,0.45274 1.88288,1.69972 0.5793,1.2092 0.12656,2.49468 -0.45275,1.28548 -1.67179,1.89273 -1.23714,0.56945 -2.52262,0.11671 -1.25754,-0.4429 -1.83683,-1.6521 -0.5974,-1.24698 -0.14466,-2.53246 z"
             id="path4293" /></g></g></g><text
       xml:space="preserve"
       transform="matrix(0.06910759,0,0,0.06910759,105.83333,213.02239)"
       id="text3737"
       style="font-size:42.6667px;line-height:1.25;font-family:'Cambria Math';-inkscape-font-specification:'Cambria Math';white-space:pre;shape-inside:url(#rect3879);display:inline;fill:#ffffff" /><text
       xml:space="preserve"
       transform="matrix(0.06910759,0,0,0.06910759,105.83333,213.02239)"
       id="text3739"
       style="font-size:42.6667px;line-height:1.25;font-family:'Cambria Math';-inkscape-font-specification:'Cambria Math';white-space:pre;shape-inside:url(#rect3881);display:inline;fill:#ffffff" /></g></svg>
